PathFileType	4	(X/Y/Z)	C:\Users\WrightLab\Desktop\Jo\P1_boxCal33.trc
DataRate	CameraRate	NumFrames	NumMarkers	Units	OrigDataRate	OrigDataStartFrame	OrigNumFrames
100.00	100.00	       55	19	mm	100.00	547	       624
Frame#	Time	Headset_Front			Headset_Back			Headset_Left			Headset_Right			Left_Shoulder			Right_Shoulder			Sternum			C7			Left Elbow			Right Elbow			Left Wrist			Right Wrist			Left ASIS			Right ASIS			S2			Left Knee			Right Knee			Left Ankle			Right Ankle			
		X1	Y1	Z1	X2	Y2	Z2	X3	Y3	Z3	X4	Y4	Z4	X5	Y5	Z5	X6	Y6	Z6	X7	Y7	Z7	X8	Y8	Z8	X9	Y9	Z9	X10	Y10	Z10	X11	Y11	Z11	X12	Y12	Z12	X13	Y13	Z13	X14	Y14	Z14	X15	Y15	Z15	X16	Y16	Z16	X17	Y17	Z17	X18	Y18	Z18	X19	Y19	Z19	

547	5.460																																		-85.00339	851.37079	2320.47998													-213.13768	527.20508	2410.90454							
548	5.470																																		-80.20209	851.43945	2328.19873													-214.74104	526.00671	2414.88623							
549	5.480																																		-76.27613	850.88684	2333.26563													-216.02950	524.75775	2419.14526							
550	5.490																																		-73.17702	850.48749	2337.58203													-217.28748	523.00104	2423.43848							
551	5.500																																		-69.31953	850.79883	2345.06836													-219.19098	521.61407	2426.55396							
552	5.510																																		-66.47739	851.50861	2352.30981													-220.60075	520.21100	2430.02563							
553	5.520																																		-63.35173	851.42639	2358.67114													-221.49207	520.03931	2434.77466							
554	5.530																																		-61.24573	851.35651	2365.20728													-221.71017	518.74017	2439.56616							
555	5.540																																		-58.80462	851.39331	2371.35571													-222.46362	518.03241	2443.18188							
556	5.550																																		-56.94557	851.38184	2378.05908													-223.19580	517.05139	2446.63989							
557	5.560																																		-55.79042	851.68890	2384.45142													-223.14441	515.63721	2453.17261							
558	5.570																																		-55.04391	852.10852	2390.59570													-224.53165	515.10553	2457.61694							
559	5.580																																		-54.76253	852.79858	2397.50195													-225.92850	514.46222	2460.57178							
560	5.590																																		-54.79100	853.70416	2404.45532													-227.14085	515.08600	2466.59326							
561	5.600																																		-54.63055	854.97668	2411.98413													-227.66400	516.27301	2472.21191							
562	5.610																																		-55.11631	855.97449	2418.52173													-228.91637	516.56927	2474.62891							
563	5.620																																		-56.08229	857.05243	2425.69971													-230.43521	518.95410	2479.05444							
564	5.630																																		-57.57352	857.69598	2432.50928													-230.48372	519.59528	2483.36963							
565	5.640																																		-58.84507	858.31158	2439.78857													-231.01578	520.68347	2487.98657							
566	5.650																																		-59.96981	858.75140	2446.53125													-231.79333	521.37793	2491.32690							
567	5.660																																		-61.54336	858.19476	2453.09644													-232.15765	522.24347	2495.16211							
568	5.670																																		-63.24876	857.50476	2459.18848													-231.97008	521.79358	2499.14307							
569	5.680																																		-64.49121	856.32410	2466.64478													-231.80371	521.36987	2502.95874							
570	5.690																																		-66.58082	853.90643	2469.85156													-231.22899	519.92279	2505.95068							
571	5.700																																		-67.05151	853.39026	2477.11841													-230.03064	517.38062	2508.73828							
572	5.710																																		-69.12629	851.00348	2481.48389													-230.00029	516.01581	2510.41553							
573	5.720																																		-70.43350	848.99823	2486.91846													-228.49072	514.53851	2514.81274							
574	5.730																																		-71.65435	844.92218	2488.87622													-228.51358	512.21179	2515.75439							
575	5.740																																		-72.49566	842.02124	2492.20239													-228.52676	508.73462	2516.36938							
576	5.750																																		-71.75281	840.63458	2496.71582													-229.15111	506.93600	2518.34106							
577	5.760																																		-72.84880	837.78888	2499.05054													-229.73445	506.11688	2519.65332							
578	5.770																																		-73.37056	835.78668	2501.63794													-229.17340	506.52560	2522.80176							
579	5.780																																		-74.23791	834.28009	2504.27930													-228.04536	505.88800	2526.02856							
580	5.790																																		-75.37230	833.24615	2506.63501													-227.13007	507.42136	2528.52368							
581	5.800																																		-76.41183	832.23596	2508.72876													-225.61008	508.35519	2533.43481							
582	5.810																																		-77.86130	831.82159	2510.89087													-225.15251	508.80557	2534.93872							
583	5.820																																		-78.93739	831.48798	2512.73438													-224.00681	509.74619	2539.69922							
584	5.830																																		-80.75378	831.30627	2513.83643													-224.31912	511.00360	2542.82886							
585	5.840																																		-82.47541	831.42810	2515.48315													-224.70818	511.41211	2543.46021							
586	5.850																																		-83.99435	831.45087	2516.97437													-225.39809	511.45715	2544.48608							
587	5.860																																		-85.93802	831.24664	2518.52002													-226.27618	512.59943	2544.21313							
588	5.870																																		-88.10842	831.31781	2520.23877													-226.74588	513.56897	2544.70898							
589	5.880																																		-90.09371	831.15137	2521.33423													-226.83792	513.64899	2544.91724							
590	5.890																																		-92.18900	829.57520	2521.30127													-226.48143	512.91309	2544.45605							
591	5.900																																		-93.18400	830.13751	2523.35400													-225.91971	513.02289	2543.84277							
592	5.910																																		-95.42028	829.27661	2524.37183													-224.99045	512.47839	2543.65723							
593	5.920																																		-97.34968	827.05347	2522.45898													-224.55664	512.05640	2543.49219							
594	5.930																																		-98.83680	826.23450	2522.57471													-224.27126	511.69882	2543.38086							
595	5.940																																		-99.61707	825.23132	2521.30298													-223.92709	511.19626	2543.58545							
596	5.950																																		-98.48016	825.90021	2521.85181													-223.81209	510.59827	2544.29443							
597	5.960																																		-99.24593	825.12225	2519.85986													-222.88120	510.19641	2544.92651							
598	5.970																																		-99.59646	825.00067	2518.39429													-222.32214	510.22168	2544.79443							
599	5.980																																		-99.41785	825.13019	2516.30444													-221.94855	510.65152	2545.60938							
600	5.990																																		-99.11512	825.18982	2514.72949													-221.94695	511.09442	2545.17334							
601	6.000																																		-99.08738	825.80005	2513.13550													-223.02644	511.70251	2543.04126							
